<mxfile host="app.diagrams.net" modified="2023-08-16T21:07:22.701Z" agent="Mozilla/5.0 (Windows NT 10.0; Win64; x64; rv:109.0) Gecko/20100101 Firefox/115.0" etag="lF_XUchv7Zo6SkHRulPR" version="21.6.8" type="github">
  <diagram name="Page-1" id="5987fedf-629e-85c4-6858-42fee31821dd">
    <mxGraphModel dx="619" dy="1654" grid="1" gridSize="10" guides="1" tooltips="1" connect="1" arrows="1" fold="1" page="1" pageScale="1.5" pageWidth="1169" pageHeight="826" background="none" math="0" shadow="0">
      <root>
        <mxCell id="0" style=";html=1;" />
        <mxCell id="1" style=";html=1;" parent="0" />
        <mxCell id="1y28jx78B81ABTf8jZqV-2" value="" style="shape=ext;double=1;rounded=1;whiteSpace=wrap;html=1;fillColor=none;" vertex="1" parent="1">
          <mxGeometry width="1000" height="1000" as="geometry" />
        </mxCell>
        <mxCell id="1y28jx78B81ABTf8jZqV-3" value="&lt;u&gt;&lt;b&gt;Unleashing the Power of AWS S3&lt;br&gt;&lt;/b&gt;&lt;/u&gt;" style="text;strokeColor=none;align=center;fillColor=none;html=1;verticalAlign=middle;whiteSpace=wrap;rounded=0;fontFamily=Times New Roman;" vertex="1" parent="1">
          <mxGeometry x="285" width="430" height="190" as="geometry" />
        </mxCell>
        <mxCell id="1y28jx78B81ABTf8jZqV-4" value="Variables&lt;br&gt;&lt;div&gt;base = 272829&lt;/div&gt;&lt;div&gt;experiment1 = 61677A&lt;/div&gt;&lt;div&gt;experiment2 = D8D9DA&lt;/div&gt;&lt;div&gt;~base = FFF6E0&lt;/div&gt;&lt;div&gt;&lt;br&gt;&lt;/div&gt;&lt;div&gt;p_h1 = &quot;can you make steps for this? which focuses s3 bucket.&quot;&lt;br&gt;&lt;/div&gt;" style="text;strokeColor=none;align=center;fillColor=none;html=1;verticalAlign=bottom;whiteSpace=wrap;rounded=0;labelPosition=center;verticalLabelPosition=top;" vertex="1" parent="1">
          <mxGeometry x="1130" y="40" width="160" height="200" as="geometry" />
        </mxCell>
        <mxCell id="1y28jx78B81ABTf8jZqV-5" value="Seamless Integration with Lambda, SageMaker, Athena, and Billing Optimization" style="text;strokeColor=none;align=center;fillColor=none;html=1;verticalAlign=middle;whiteSpace=wrap;rounded=0;" vertex="1" parent="1">
          <mxGeometry x="365" y="110" width="270" height="20" as="geometry" />
        </mxCell>
        <mxCell id="1y28jx78B81ABTf8jZqV-6" value="" style="sketch=0;outlineConnect=0;fontColor=#232F3E;gradientColor=none;fillColor=#3F8624;strokeColor=none;dashed=0;verticalLabelPosition=bottom;verticalAlign=top;align=center;html=1;fontSize=12;fontStyle=0;aspect=fixed;pointerEvents=1;shape=mxgraph.aws4.bucket;" vertex="1" parent="1">
          <mxGeometry x="462.5" y="210" width="75" height="78" as="geometry" />
        </mxCell>
      </root>
    </mxGraphModel>
  </diagram>
</mxfile>
